<svg width="57" height="29" viewBox="0 0 57 29" fill="none" xmlns="http://www.w3.org/2000/svg">
<g clip-path="url(#clip0_1341_8902)">
<path d="M5.78856 0.947754H56.1067C56.1067 0.947754 54.191 14.6191 44.8681 20.5346L51.5091 28.8163L33.0549 28.882L30.3091 25.1355L29.1597 28.9477L8.4309 28.8859C8.4309 28.8859 -1.16658 29.371 0.257399 17.1956C0.709496 13.2533 5.78856 0.947754 5.78856 0.947754Z" fill="white"/>
<path d="M8.78327 4.65339L15.5596 4.62842C14.1676 8.63386 11.6836 15.5839 11.5227 16.441C11.2085 18.1223 11.2992 19.1411 11.9198 19.8772C12.5903 20.666 13.6491 20.8776 14.4881 20.9144C16.1343 20.9696 18.6885 21.0603 20.3488 20.9289C20.3488 20.9289 20.4471 21.0248 20.8596 20.0087L24.3717 9.55799H38.9308C38.9308 9.55799 38.4199 12.45 35.4825 12.7129C33.6913 12.8715 31.892 12.9127 30.0957 12.8365L26.1596 24.9383L9.68491 25.0697C8.56616 24.9909 6.79225 24.6675 5.58283 23.3017C4.30571 21.8556 4.39894 19.4579 4.53815 18.3063C4.58157 17.9462 5.29803 14.8346 5.40658 14.4941L8.78327 4.65339Z" fill="#D9211C"/>
<path d="M17.092 4.69434L13.1597 16.5884C13.1597 16.5884 12.4152 18.998 13.7396 19.2688C15.3206 19.5922 17.0064 19.5659 18.1711 19.5317C18.8723 19.5133 19.3205 19.4778 19.3205 19.4778L19.8492 17.9003L22.8786 8.82992C23.2796 7.65734 23.1519 7.92025 24.2221 7.85452H41.6125C41.5566 8.26561 41.4607 8.66989 41.3264 9.06128C40.2523 12.3332 37.1924 14.472 33.8374 14.376L31.0763 14.3616L29.8631 18.8968L34.7161 24.8123H43.5281L38.2281 18.0423H38.6113C38.6113 18.0423 46.9763 17.9766 50.8077 4.69959L17.092 4.69434Z" fill="#1D1D1B"/>
</g>
<defs>
<clipPath id="clip0_1341_8902">
<rect width="56" height="28" fill="white" transform="translate(0.109375 0.947754)"/>
</clipPath>
</defs>
</svg>
